<svg xmlns="http://www.w3.org/2000/svg" xmlns:xlink="http://www.w3.org/1999/xlink" width="324" zoomAndPan="magnify" viewBox="0 0 242.87999 60" height="80" preserveAspectRatio="xMidYMid meet" version="1.0"><defs><g/><clipPath id="0f12db5b95"><path d="M 203 12 L 238 12 L 238 48 L 203 48 Z M 203 12 " clip-rule="nonzero"/></clipPath><clipPath id="a3720712b3"><path d="M 202.101562 13.117188 L 237.277344 11.164062 L 239.273438 47.09375 L 204.09375 49.042969 Z M 202.101562 13.117188 " clip-rule="nonzero"/></clipPath><clipPath id="b402afa139"><path d="M 202.101562 13.117188 L 237.277344 11.164062 L 239.273438 47.09375 L 204.09375 49.042969 Z M 202.101562 13.117188 " clip-rule="nonzero"/></clipPath></defs><g clip-path="url(#0f12db5b95)"><g clip-path="url(#a3720712b3)"><g clip-path="url(#b402afa139)"><path fill="#38f094" d="M 235.8125 27.386719 C 232.667969 26.578125 229.371094 26.304688 226.089844 26.273438 C 228.554688 24.277344 231.03125 22.292969 233.417969 20.199219 C 234.953125 18.847656 232.730469 16.3125 231.097656 17.480469 C 228.09375 19.644531 225.203125 21.996094 222.386719 24.425781 C 222.445312 20.683594 222.238281 16.824219 221.085938 13.382812 C 220.652344 12.089844 218.953125 12.582031 218.894531 13.808594 C 218.726562 17.0625 218.558594 20.304688 218.363281 23.550781 C 215.097656 20.496094 210.121094 16.722656 206.117188 18.90625 C 205.546875 19.214844 205.621094 20.019531 206.011719 20.421875 C 207.628906 22.085938 210.34375 22.9375 212.246094 24.296875 C 213.242188 25.011719 214.164062 25.808594 215.050781 26.664062 C 211.300781 26.886719 207.421875 27.300781 204.089844 28.574219 C 203.179688 28.921875 203.082031 30.550781 204.207031 30.667969 C 208 31.070312 211.953125 30.574219 215.828125 30.257812 C 212.394531 33.378906 208.980469 36.707031 206.472656 40.578125 C 205.480469 42.117188 207.808594 43.488281 208.972656 42.320312 C 211.851562 39.414062 214.617188 36.457031 217.550781 33.636719 C 217.148438 37.425781 216.742188 41.292969 217.089844 44.976562 C 217.324219 47.445312 221.421875 48.082031 221.636719 45.347656 C 221.917969 41.695312 221.988281 38.003906 222.074219 34.3125 C 224.429688 36.816406 226.96875 39.136719 230.042969 40.714844 C 232.738281 42.097656 234.863281 37.882812 232.171875 36.488281 C 229.183594 34.941406 226.773438 32.546875 224.476562 30.03125 C 228.007812 30.128906 231.523438 30.457031 235.007812 31.175781 C 237.429688 31.679688 238.199219 28 235.8125 27.386719 Z M 235.8125 27.386719 " fill-opacity="1" fill-rule="nonzero"/></g></g></g><g fill="#0e1d3e" fill-opacity="1"><g transform="translate(3.063906, 43.341344)"><g><path d="M 15.296875 0 L 9.8125 -9.703125 L 7.453125 -9.703125 L 7.453125 0 L 2.453125 0 L 2.453125 -24.890625 L 11.796875 -24.890625 C 13.722656 -24.890625 15.363281 -24.550781 16.71875 -23.875 C 18.070312 -23.195312 19.085938 -22.28125 19.765625 -21.125 C 20.441406 -19.96875 20.78125 -18.675781 20.78125 -17.25 C 20.78125 -15.613281 20.304688 -14.132812 19.359375 -12.8125 C 18.410156 -11.5 17 -10.59375 15.125 -10.09375 L 21.078125 0 Z M 7.453125 -13.4375 L 11.625 -13.4375 C 12.976562 -13.4375 13.988281 -13.765625 14.65625 -14.421875 C 15.320312 -15.078125 15.65625 -15.988281 15.65625 -17.15625 C 15.65625 -18.289062 15.320312 -19.171875 14.65625 -19.796875 C 13.988281 -20.429688 12.976562 -20.75 11.625 -20.75 L 7.453125 -20.75 Z M 7.453125 -13.4375 "/></g></g></g><g fill="#0e1d3e" fill-opacity="1"><g transform="translate(25.917342, 43.341344)"><g><path d="M 20.828125 -10.296875 C 20.828125 -9.585938 20.78125 -8.945312 20.6875 -8.375 L 6.234375 -8.375 C 6.359375 -6.945312 6.859375 -5.828125 7.734375 -5.015625 C 8.617188 -4.210938 9.703125 -3.8125 10.984375 -3.8125 C 12.835938 -3.8125 14.15625 -4.609375 14.9375 -6.203125 L 20.328125 -6.203125 C 19.753906 -4.304688 18.660156 -2.742188 17.046875 -1.515625 C 15.429688 -0.285156 13.445312 0.328125 11.09375 0.328125 C 9.1875 0.328125 7.476562 -0.09375 5.96875 -0.9375 C 4.457031 -1.78125 3.28125 -2.972656 2.4375 -4.515625 C 1.59375 -6.066406 1.171875 -7.851562 1.171875 -9.875 C 1.171875 -11.914062 1.585938 -13.707031 2.421875 -15.25 C 3.253906 -16.800781 4.421875 -17.992188 5.921875 -18.828125 C 7.421875 -19.660156 9.144531 -20.078125 11.09375 -20.078125 C 12.96875 -20.078125 14.644531 -19.671875 16.125 -18.859375 C 17.613281 -18.054688 18.769531 -16.910156 19.59375 -15.421875 C 20.414062 -13.929688 20.828125 -12.222656 20.828125 -10.296875 Z M 15.65625 -11.734375 C 15.632812 -13.015625 15.171875 -14.039062 14.265625 -14.8125 C 13.359375 -15.582031 12.253906 -15.96875 10.953125 -15.96875 C 9.710938 -15.96875 8.671875 -15.59375 7.828125 -14.84375 C 6.984375 -14.101562 6.46875 -13.066406 6.28125 -11.734375 Z M 15.65625 -11.734375 "/></g></g></g><g fill="#0e1d3e" fill-opacity="1"><g transform="translate(47.915103, 43.341344)"><g><path d="M 10.703125 -4.59375 L 15.6875 -19.75 L 21 -19.75 L 13.6875 0 L 7.625 0 L 0.359375 -19.75 L 5.703125 -19.75 Z M 10.703125 -4.59375 "/></g></g></g><g fill="#0e1d3e" fill-opacity="1"><g transform="translate(69.271118, 43.341344)"><g><path d="M 4.984375 -22.109375 C 4.109375 -22.109375 3.378906 -22.382812 2.796875 -22.9375 C 2.210938 -23.5 1.921875 -24.195312 1.921875 -25.03125 C 1.921875 -25.863281 2.210938 -26.554688 2.796875 -27.109375 C 3.378906 -27.671875 4.109375 -27.953125 4.984375 -27.953125 C 5.867188 -27.953125 6.601562 -27.671875 7.1875 -27.109375 C 7.769531 -26.554688 8.0625 -25.863281 8.0625 -25.03125 C 8.0625 -24.195312 7.769531 -23.5 7.1875 -22.9375 C 6.601562 -22.382812 5.867188 -22.109375 4.984375 -22.109375 Z M 7.453125 -19.75 L 7.453125 0 L 2.453125 0 L 2.453125 -19.75 Z M 7.453125 -19.75 "/></g></g></g><g fill="#0e1d3e" fill-opacity="1"><g transform="translate(79.182585, 43.341344)"><g><path d="M 20.828125 -10.296875 C 20.828125 -9.585938 20.78125 -8.945312 20.6875 -8.375 L 6.234375 -8.375 C 6.359375 -6.945312 6.859375 -5.828125 7.734375 -5.015625 C 8.617188 -4.210938 9.703125 -3.8125 10.984375 -3.8125 C 12.835938 -3.8125 14.15625 -4.609375 14.9375 -6.203125 L 20.328125 -6.203125 C 19.753906 -4.304688 18.660156 -2.742188 17.046875 -1.515625 C 15.429688 -0.285156 13.445312 0.328125 11.09375 0.328125 C 9.1875 0.328125 7.476562 -0.09375 5.96875 -0.9375 C 4.457031 -1.78125 3.28125 -2.972656 2.4375 -4.515625 C 1.59375 -6.066406 1.171875 -7.851562 1.171875 -9.875 C 1.171875 -11.914062 1.585938 -13.707031 2.421875 -15.25 C 3.253906 -16.800781 4.421875 -17.992188 5.921875 -18.828125 C 7.421875 -19.660156 9.144531 -20.078125 11.09375 -20.078125 C 12.96875 -20.078125 14.644531 -19.671875 16.125 -18.859375 C 17.613281 -18.054688 18.769531 -16.910156 19.59375 -15.421875 C 20.414062 -13.929688 20.828125 -12.222656 20.828125 -10.296875 Z M 15.65625 -11.734375 C 15.632812 -13.015625 15.171875 -14.039062 14.265625 -14.8125 C 13.359375 -15.582031 12.253906 -15.96875 10.953125 -15.96875 C 9.710938 -15.96875 8.671875 -15.59375 7.828125 -14.84375 C 6.984375 -14.101562 6.46875 -13.066406 6.28125 -11.734375 Z M 15.65625 -11.734375 "/></g></g></g><g fill="#0e1d3e" fill-opacity="1"><g transform="translate(101.180346, 43.341344)"><g><path d="M 29.84375 -19.75 L 24.0625 0 L 18.6875 0 L 15.078125 -13.796875 L 11.484375 0 L 6.0625 0 L 0.25 -19.75 L 5.3125 -19.75 L 8.8125 -4.703125 L 12.59375 -19.75 L 17.859375 -19.75 L 21.578125 -4.75 L 25.0625 -19.75 Z M 29.84375 -19.75 "/></g></g></g><g fill="#0e1d3e" fill-opacity="1"><g transform="translate(131.271287, 43.341344)"><g><path d="M 8.265625 -15.65625 L 8.265625 -6.09375 C 8.265625 -5.425781 8.425781 -4.941406 8.75 -4.640625 C 9.070312 -4.347656 9.613281 -4.203125 10.375 -4.203125 L 12.6875 -4.203125 L 12.6875 0 L 9.5625 0 C 5.351562 0 3.25 -2.046875 3.25 -6.140625 L 3.25 -15.65625 L 0.890625 -15.65625 L 0.890625 -19.75 L 3.25 -19.75 L 3.25 -24.640625 L 8.265625 -24.640625 L 8.265625 -19.75 L 12.6875 -19.75 L 12.6875 -15.65625 Z M 8.265625 -15.65625 "/></g></g></g><g fill="#0e1d3e" fill-opacity="1"><g transform="translate(145.104563, 43.341344)"><g><path d="M 7.453125 -16.6875 C 8.097656 -17.726562 8.9375 -18.546875 9.96875 -19.140625 C 11 -19.734375 12.179688 -20.03125 13.515625 -20.03125 L 13.515625 -14.796875 L 12.1875 -14.796875 C 10.625 -14.796875 9.441406 -14.425781 8.640625 -13.6875 C 7.847656 -12.957031 7.453125 -11.675781 7.453125 -9.84375 L 7.453125 0 L 2.453125 0 L 2.453125 -19.75 L 7.453125 -19.75 Z M 7.453125 -16.6875 "/></g></g></g><g fill="#0e1d3e" fill-opacity="1"><g transform="translate(159.508281, 43.341344)"><g><path d="M 20.828125 -10.296875 C 20.828125 -9.585938 20.78125 -8.945312 20.6875 -8.375 L 6.234375 -8.375 C 6.359375 -6.945312 6.859375 -5.828125 7.734375 -5.015625 C 8.617188 -4.210938 9.703125 -3.8125 10.984375 -3.8125 C 12.835938 -3.8125 14.15625 -4.609375 14.9375 -6.203125 L 20.328125 -6.203125 C 19.753906 -4.304688 18.660156 -2.742188 17.046875 -1.515625 C 15.429688 -0.285156 13.445312 0.328125 11.09375 0.328125 C 9.1875 0.328125 7.476562 -0.09375 5.96875 -0.9375 C 4.457031 -1.78125 3.28125 -2.972656 2.4375 -4.515625 C 1.59375 -6.066406 1.171875 -7.851562 1.171875 -9.875 C 1.171875 -11.914062 1.585938 -13.707031 2.421875 -15.25 C 3.253906 -16.800781 4.421875 -17.992188 5.921875 -18.828125 C 7.421875 -19.660156 9.144531 -20.078125 11.09375 -20.078125 C 12.96875 -20.078125 14.644531 -19.671875 16.125 -18.859375 C 17.613281 -18.054688 18.769531 -16.910156 19.59375 -15.421875 C 20.414062 -13.929688 20.828125 -12.222656 20.828125 -10.296875 Z M 15.65625 -11.734375 C 15.632812 -13.015625 15.171875 -14.039062 14.265625 -14.8125 C 13.359375 -15.582031 12.253906 -15.96875 10.953125 -15.96875 C 9.710938 -15.96875 8.671875 -15.59375 7.828125 -14.84375 C 6.984375 -14.101562 6.46875 -13.066406 6.28125 -11.734375 Z M 15.65625 -11.734375 "/></g></g></g><g fill="#0e1d3e" fill-opacity="1"><g transform="translate(181.506042, 43.341344)"><g><path d="M 20.828125 -10.296875 C 20.828125 -9.585938 20.78125 -8.945312 20.6875 -8.375 L 6.234375 -8.375 C 6.359375 -6.945312 6.859375 -5.828125 7.734375 -5.015625 C 8.617188 -4.210938 9.703125 -3.8125 10.984375 -3.8125 C 12.835938 -3.8125 14.15625 -4.609375 14.9375 -6.203125 L 20.328125 -6.203125 C 19.753906 -4.304688 18.660156 -2.742188 17.046875 -1.515625 C 15.429688 -0.285156 13.445312 0.328125 11.09375 0.328125 C 9.1875 0.328125 7.476562 -0.09375 5.96875 -0.9375 C 4.457031 -1.78125 3.28125 -2.972656 2.4375 -4.515625 C 1.59375 -6.066406 1.171875 -7.851562 1.171875 -9.875 C 1.171875 -11.914062 1.585938 -13.707031 2.421875 -15.25 C 3.253906 -16.800781 4.421875 -17.992188 5.921875 -18.828125 C 7.421875 -19.660156 9.144531 -20.078125 11.09375 -20.078125 C 12.96875 -20.078125 14.644531 -19.671875 16.125 -18.859375 C 17.613281 -18.054688 18.769531 -16.910156 19.59375 -15.421875 C 20.414062 -13.929688 20.828125 -12.222656 20.828125 -10.296875 Z M 15.65625 -11.734375 C 15.632812 -13.015625 15.171875 -14.039062 14.265625 -14.8125 C 13.359375 -15.582031 12.253906 -15.96875 10.953125 -15.96875 C 9.710938 -15.96875 8.671875 -15.59375 7.828125 -14.84375 C 6.984375 -14.101562 6.46875 -13.066406 6.28125 -11.734375 Z M 15.65625 -11.734375 "/></g></g></g></svg>