<svg xmlns="http://www.w3.org/2000/svg" xmlns:xlink="http://www.w3.org/1999/xlink" width="324" zoomAndPan="magnify" viewBox="0 0 242.87999 60" height="80" preserveAspectRatio="xMidYMid meet" version="1.0"><defs><g/></defs><g fill="#0e1d3e" fill-opacity="1"><g transform="translate(5.149498, 43.790219)"><g><path d="M 17.75 0 L 11.375 -11.25 L 8.640625 -11.25 L 8.640625 0 L 2.859375 0 L 2.859375 -28.875 L 13.6875 -28.875 C 15.925781 -28.875 17.832031 -28.476562 19.40625 -27.6875 C 20.976562 -26.90625 22.15625 -25.847656 22.9375 -24.515625 C 23.726562 -23.179688 24.125 -21.6875 24.125 -20.03125 C 24.125 -18.125 23.570312 -16.40625 22.46875 -14.875 C 21.363281 -13.34375 19.722656 -12.285156 17.546875 -11.703125 L 24.453125 0 Z M 8.640625 -15.59375 L 13.484375 -15.59375 C 15.054688 -15.59375 16.226562 -15.972656 17 -16.734375 C 17.769531 -17.492188 18.15625 -18.550781 18.15625 -19.90625 C 18.15625 -21.226562 17.769531 -22.253906 17 -22.984375 C 16.226562 -23.710938 15.054688 -24.078125 13.484375 -24.078125 L 8.640625 -24.078125 Z M 8.640625 -15.59375 "/></g></g></g><g fill="#0e1d3e" fill-opacity="1"><g transform="translate(31.668133, 43.790219)"><g><path d="M 24.15625 -11.953125 C 24.15625 -11.128906 24.101562 -10.382812 24 -9.71875 L 7.234375 -9.71875 C 7.378906 -8.0625 7.960938 -6.765625 8.984375 -5.828125 C 10.003906 -4.890625 11.257812 -4.421875 12.75 -4.421875 C 14.894531 -4.421875 16.425781 -5.347656 17.34375 -7.203125 L 23.578125 -7.203125 C 22.921875 -4.992188 21.65625 -3.175781 19.78125 -1.75 C 17.90625 -0.332031 15.601562 0.375 12.875 0.375 C 10.664062 0.375 8.679688 -0.113281 6.921875 -1.09375 C 5.171875 -2.070312 3.804688 -3.457031 2.828125 -5.25 C 1.847656 -7.039062 1.359375 -9.109375 1.359375 -11.453125 C 1.359375 -13.828125 1.84375 -15.910156 2.8125 -17.703125 C 3.78125 -19.492188 5.128906 -20.875 6.859375 -21.84375 C 8.597656 -22.8125 10.601562 -23.296875 12.875 -23.296875 C 15.050781 -23.296875 17 -22.828125 18.71875 -21.890625 C 20.445312 -20.953125 21.785156 -19.617188 22.734375 -17.890625 C 23.679688 -16.171875 24.15625 -14.191406 24.15625 -11.953125 Z M 18.15625 -13.609375 C 18.132812 -15.097656 17.597656 -16.289062 16.546875 -17.1875 C 15.503906 -18.082031 14.222656 -18.53125 12.703125 -18.53125 C 11.265625 -18.53125 10.054688 -18.09375 9.078125 -17.21875 C 8.097656 -16.351562 7.5 -15.148438 7.28125 -13.609375 Z M 18.15625 -13.609375 "/></g></g></g><g fill="#0e1d3e" fill-opacity="1"><g transform="translate(57.193862, 43.790219)"><g><path d="M 12.40625 -5.34375 L 18.203125 -22.921875 L 24.375 -22.921875 L 15.890625 0 L 8.859375 0 L 0.40625 -22.921875 L 6.625 -22.921875 Z M 12.40625 -5.34375 "/></g></g></g><g fill="#0e1d3e" fill-opacity="1"><g transform="translate(81.974922, 43.790219)"><g><path d="M 5.796875 -25.65625 C 4.773438 -25.65625 3.925781 -25.976562 3.25 -26.625 C 2.570312 -27.269531 2.234375 -28.078125 2.234375 -29.046875 C 2.234375 -30.015625 2.570312 -30.820312 3.25 -31.46875 C 3.925781 -32.113281 4.773438 -32.4375 5.796875 -32.4375 C 6.816406 -32.4375 7.660156 -32.113281 8.328125 -31.46875 C 9.003906 -30.820312 9.34375 -30.015625 9.34375 -29.046875 C 9.34375 -28.078125 9.003906 -27.269531 8.328125 -26.625 C 7.660156 -25.976562 6.816406 -25.65625 5.796875 -25.65625 Z M 8.640625 -22.921875 L 8.640625 0 L 2.859375 0 L 2.859375 -22.921875 Z M 8.640625 -22.921875 "/></g></g></g><g fill="#0e1d3e" fill-opacity="1"><g transform="translate(93.475976, 43.790219)"><g><path d="M 24.15625 -11.953125 C 24.15625 -11.128906 24.101562 -10.382812 24 -9.71875 L 7.234375 -9.71875 C 7.378906 -8.0625 7.960938 -6.765625 8.984375 -5.828125 C 10.003906 -4.890625 11.257812 -4.421875 12.75 -4.421875 C 14.894531 -4.421875 16.425781 -5.347656 17.34375 -7.203125 L 23.578125 -7.203125 C 22.921875 -4.992188 21.65625 -3.175781 19.78125 -1.75 C 17.90625 -0.332031 15.601562 0.375 12.875 0.375 C 10.664062 0.375 8.679688 -0.113281 6.921875 -1.09375 C 5.171875 -2.070312 3.804688 -3.457031 2.828125 -5.25 C 1.847656 -7.039062 1.359375 -9.109375 1.359375 -11.453125 C 1.359375 -13.828125 1.84375 -15.910156 2.8125 -17.703125 C 3.78125 -19.492188 5.128906 -20.875 6.859375 -21.84375 C 8.597656 -22.8125 10.601562 -23.296875 12.875 -23.296875 C 15.050781 -23.296875 17 -22.828125 18.71875 -21.890625 C 20.445312 -20.953125 21.785156 -19.617188 22.734375 -17.890625 C 23.679688 -16.171875 24.15625 -14.191406 24.15625 -11.953125 Z M 18.15625 -13.609375 C 18.132812 -15.097656 17.597656 -16.289062 16.546875 -17.1875 C 15.503906 -18.082031 14.222656 -18.53125 12.703125 -18.53125 C 11.265625 -18.53125 10.054688 -18.09375 9.078125 -17.21875 C 8.097656 -16.351562 7.5 -15.148438 7.28125 -13.609375 Z M 18.15625 -13.609375 "/></g></g></g><g fill="#0e1d3e" fill-opacity="1"><g transform="translate(119.001705, 43.790219)"><g><path d="M 34.625 -22.921875 L 27.921875 0 L 21.6875 0 L 17.5 -16.015625 L 13.328125 0 L 7.03125 0 L 0.296875 -22.921875 L 6.171875 -22.921875 L 10.21875 -5.46875 L 14.609375 -22.921875 L 20.734375 -22.921875 L 25.03125 -5.5 L 29.09375 -22.921875 Z M 34.625 -22.921875 "/></g></g></g><g fill="#0e1d3e" fill-opacity="1"><g transform="translate(153.918585, 43.790219)"><g><path d="M 9.59375 -18.15625 L 9.59375 -7.078125 C 9.59375 -6.304688 9.78125 -5.742188 10.15625 -5.390625 C 10.53125 -5.046875 11.160156 -4.875 12.046875 -4.875 L 14.734375 -4.875 L 14.734375 0 L 11.09375 0 C 6.207031 0 3.765625 -2.367188 3.765625 -7.109375 L 3.765625 -18.15625 L 1.03125 -18.15625 L 1.03125 -22.921875 L 3.765625 -22.921875 L 3.765625 -28.59375 L 9.59375 -28.59375 L 9.59375 -22.921875 L 14.734375 -22.921875 L 14.734375 -18.15625 Z M 9.59375 -18.15625 "/></g></g></g><g fill="#0e1d3e" fill-opacity="1"><g transform="translate(169.970422, 43.790219)"><g><path d="M 8.640625 -19.359375 C 9.390625 -20.578125 10.363281 -21.53125 11.5625 -22.21875 C 12.757812 -22.90625 14.132812 -23.25 15.6875 -23.25 L 15.6875 -17.171875 L 14.15625 -17.171875 C 12.332031 -17.171875 10.957031 -16.742188 10.03125 -15.890625 C 9.101562 -15.035156 8.640625 -13.546875 8.640625 -11.421875 L 8.640625 0 L 2.859375 0 L 2.859375 -22.921875 L 8.640625 -22.921875 Z M 8.640625 -19.359375 "/></g></g></g><g fill="#0e1d3e" fill-opacity="1"><g transform="translate(186.684186, 43.790219)"><g><path d="M 24.15625 -11.953125 C 24.15625 -11.128906 24.101562 -10.382812 24 -9.71875 L 7.234375 -9.71875 C 7.378906 -8.0625 7.960938 -6.765625 8.984375 -5.828125 C 10.003906 -4.890625 11.257812 -4.421875 12.75 -4.421875 C 14.894531 -4.421875 16.425781 -5.347656 17.34375 -7.203125 L 23.578125 -7.203125 C 22.921875 -4.992188 21.65625 -3.175781 19.78125 -1.75 C 17.90625 -0.332031 15.601562 0.375 12.875 0.375 C 10.664062 0.375 8.679688 -0.113281 6.921875 -1.09375 C 5.171875 -2.070312 3.804688 -3.457031 2.828125 -5.25 C 1.847656 -7.039062 1.359375 -9.109375 1.359375 -11.453125 C 1.359375 -13.828125 1.84375 -15.910156 2.8125 -17.703125 C 3.78125 -19.492188 5.128906 -20.875 6.859375 -21.84375 C 8.597656 -22.8125 10.601562 -23.296875 12.875 -23.296875 C 15.050781 -23.296875 17 -22.828125 18.71875 -21.890625 C 20.445312 -20.953125 21.785156 -19.617188 22.734375 -17.890625 C 23.679688 -16.171875 24.15625 -14.191406 24.15625 -11.953125 Z M 18.15625 -13.609375 C 18.132812 -15.097656 17.597656 -16.289062 16.546875 -17.1875 C 15.503906 -18.082031 14.222656 -18.53125 12.703125 -18.53125 C 11.265625 -18.53125 10.054688 -18.09375 9.078125 -17.21875 C 8.097656 -16.351562 7.5 -15.148438 7.28125 -13.609375 Z M 18.15625 -13.609375 "/></g></g></g><g fill="#0e1d3e" fill-opacity="1"><g transform="translate(212.209915, 43.790219)"><g><path d="M 24.15625 -11.953125 C 24.15625 -11.128906 24.101562 -10.382812 24 -9.71875 L 7.234375 -9.71875 C 7.378906 -8.0625 7.960938 -6.765625 8.984375 -5.828125 C 10.003906 -4.890625 11.257812 -4.421875 12.75 -4.421875 C 14.894531 -4.421875 16.425781 -5.347656 17.34375 -7.203125 L 23.578125 -7.203125 C 22.921875 -4.992188 21.65625 -3.175781 19.78125 -1.75 C 17.90625 -0.332031 15.601562 0.375 12.875 0.375 C 10.664062 0.375 8.679688 -0.113281 6.921875 -1.09375 C 5.171875 -2.070312 3.804688 -3.457031 2.828125 -5.25 C 1.847656 -7.039062 1.359375 -9.109375 1.359375 -11.453125 C 1.359375 -13.828125 1.84375 -15.910156 2.8125 -17.703125 C 3.78125 -19.492188 5.128906 -20.875 6.859375 -21.84375 C 8.597656 -22.8125 10.601562 -23.296875 12.875 -23.296875 C 15.050781 -23.296875 17 -22.828125 18.71875 -21.890625 C 20.445312 -20.953125 21.785156 -19.617188 22.734375 -17.890625 C 23.679688 -16.171875 24.15625 -14.191406 24.15625 -11.953125 Z M 18.15625 -13.609375 C 18.132812 -15.097656 17.597656 -16.289062 16.546875 -17.1875 C 15.503906 -18.082031 14.222656 -18.53125 12.703125 -18.53125 C 11.265625 -18.53125 10.054688 -18.09375 9.078125 -17.21875 C 8.097656 -16.351562 7.5 -15.148438 7.28125 -13.609375 Z M 18.15625 -13.609375 "/></g></g></g></svg>