<svg xmlns="http://www.w3.org/2000/svg" xmlns:xlink="http://www.w3.org/1999/xlink" width="500" zoomAndPan="magnify" viewBox="0 0 375 374.999991" height="500" preserveAspectRatio="xMidYMid meet" version="1.0"><defs><clipPath id="6be1ff7172"><path d="M 30 31 L 338 31 L 338 340 L 30 340 Z M 30 31 " clip-rule="nonzero"/></clipPath><clipPath id="4aead82d64"><path d="M 19.359375 35.894531 L 337.621094 18.234375 L 355.445312 339.488281 L 37.183594 357.148438 Z M 19.359375 35.894531 " clip-rule="nonzero"/></clipPath><clipPath id="89e5c44561"><path d="M 19.359375 35.894531 L 337.621094 18.234375 L 355.445312 339.488281 L 37.183594 357.148438 Z M 19.359375 35.894531 " clip-rule="nonzero"/></clipPath></defs><g clip-path="url(#6be1ff7172)"><g clip-path="url(#4aead82d64)"><g clip-path="url(#89e5c44561)"><path fill="#38f094" d="M 324.265625 163.285156 C 295.796875 156.089844 265.988281 153.664062 236.300781 153.398438 C 258.628906 135.53125 281.027344 117.789062 302.625 99.039062 C 316.515625 86.957031 296.441406 64.277344 281.660156 74.738281 C 254.480469 94.105469 228.320312 115.152344 202.8125 136.898438 C 203.363281 103.433594 201.507812 68.925781 191.105469 38.167969 C 187.191406 26.582031 171.828125 31.019531 171.265625 41.988281 C 169.734375 71.058594 168.195312 100.070312 166.414062 129.09375 C 136.894531 101.804688 91.898438 68.085938 55.660156 87.648438 C 50.507812 90.40625 51.15625 97.601562 54.683594 101.175781 C 69.328125 116.0625 93.871094 123.660156 111.082031 135.808594 C 120.070312 142.171875 128.425781 149.308594 136.4375 156.960938 C 102.496094 158.96875 67.414062 162.707031 37.261719 174.082031 C 29.046875 177.195312 28.125 191.769531 38.300781 192.8125 C 72.617188 196.410156 108.394531 191.953125 143.460938 189.078125 C 112.378906 217.007812 81.457031 246.785156 58.765625 281.417969 C 49.78125 295.203125 70.820312 307.445312 81.34375 296.972656 C 107.414062 270.992188 132.472656 244.507812 159.019531 219.304688 C 155.347656 253.191406 151.652344 287.757812 154.777344 320.710938 C 156.863281 342.785156 193.945312 348.449219 195.921875 323.992188 C 198.488281 291.339844 199.125 258.300781 199.945312 225.3125 C 221.238281 247.679688 244.164062 268.410156 271.964844 282.503906 C 296.34375 294.871094 315.59375 257.152344 291.277344 244.71875 C 264.230469 230.894531 242.4375 209.484375 221.695312 187.023438 C 253.636719 187.847656 285.445312 190.78125 316.957031 197.191406 C 338.855469 201.660156 345.855469 168.765625 324.265625 163.285156 Z M 324.265625 163.285156 " fill-opacity="1" fill-rule="nonzero"/></g></g></g></svg>